<?xml version="1.0" standalone="no"?>
<!DOCTYPE svg PUBLIC "-//W3C//DTD SVG 1.1//EN" "http://www.w3.org/Graphics/SVG/1.1/DTD/svg11.dtd" >
<!--
2018-6-19: Created with FontForge (http://fontforge.org)
-->
<svg xmlns="http://www.w3.org/2000/svg" xmlns:xlink="http://www.w3.org/1999/xlink" version="1.1">
<metadata>
Created by FontForge 20160405 at Tue Jun 19 18:46:21 2018
 By Apache
Copyright (c) 2018, Apache
</metadata>
<defs>
<font id="Flaticon" horiz-adv-x="512" >
  <font-face 
    font-family="Flaticon"
    font-weight="400"
    font-stretch="normal"
    units-per-em="512"
    panose-1="2 0 5 3 0 0 0 0 0 0"
    ascent="448"
    descent="-64"
    bbox="-0.00347197 -64.001 512.002 448.002"
    underline-thickness="25.6"
    underline-position="-51.2"
    unicode-range="U+0020-F117"
  />
    <missing-glyph />
    <glyph glyph-name="space" unicode=" " horiz-adv-x="200" 
 />
    <glyph glyph-name="uniF109" unicode="&#xf109;" 
d="M256 256c35.292 0 64 -28.708 64 -64s-28.708 -64 -64 -64s-64 28.708 -64 64s28.708 64 64 64zM256 149.333c23.5215 0 42.667 19.1348 42.667 42.667s-19.1455 42.667 -42.667 42.667s-42.667 -19.1348 -42.667 -42.667s19.1455 -42.667 42.667 -42.667zM256 64
c35.292 0 64 -28.708 64 -64s-28.708 -64 -64 -64s-64 28.708 -64 64s28.708 64 64 64zM256 -42.667c23.5215 0 42.667 19.1348 42.667 42.667s-19.1455 42.667 -42.667 42.667s-42.667 -19.1348 -42.667 -42.667s19.1455 -42.667 42.667 -42.667zM256 320
c-35.292 0 -64 28.708 -64 64s28.708 64 64 64s64 -28.708 64 -64s-28.708 -64 -64 -64zM256 426.667c-23.5215 0 -42.667 -19.1357 -42.667 -42.667s19.1455 -42.667 42.667 -42.667s42.667 19.1348 42.667 42.667s-19.1455 42.667 -42.667 42.667z" />
    <glyph glyph-name="uniF102" unicode="&#xf102;" 
d="M483.708 447.991c15.6133 0 28.2666 -12.6367 28.2754 -28.2412v-455.467c0 -15.5791 -12.6709 -28.249 -28.2832 -28.249h-130.458v198.278h66.5312l10.0068 77.2705h-76.5293v49.3252c0 22.3652 6.1875 37.6162 38.2646 37.6162l40.9199 0.0166016v69.1104
c-7.07227 0.918945 -31.3262 3.03516 -59.6094 3.03516c-58.9951 0 -99.3672 -36.0225 -99.3672 -102.141v-56.9883h-66.7168v-77.2793h66.7168v-198.27h-245.201c-15.5957 0 -28.2578 12.6533 -28.2578 28.2744v455.45c0 15.6211 12.6621 28.2578 28.2578 28.2578h455.45z
" />
    <glyph glyph-name="uniF106" unicode="&#xf106;" 
d="M256 158.349c21.2676 0 38.5713 -17.3027 38.5693 -38.5713c0 -17.7949 -12.1172 -32.8076 -28.5312 -37.2373v-55.4746c0 -5.54297 -4.49512 -10.0391 -10.0391 -10.0391c-5.54297 0 -10.0391 4.49512 -10.0391 10.0391v55.4746
c-16.4141 4.42969 -28.5312 19.4414 -28.5312 37.2373c0 21.2686 17.3037 38.5713 38.5713 38.5713zM256 101.286c10.1973 0 18.4922 8.29492 18.4922 18.4922c0 10.1963 -8.29492 18.4932 -18.4922 18.4932s-18.4922 -8.29688 -18.4922 -18.4932
c0 -10.1973 8.29492 -18.4922 18.4922 -18.4922zM391.539 266.23c32.9746 0 59.8037 -26.8232 59.8047 -59.7949v-210.633c0 -32.9756 -26.8281 -59.8037 -59.8037 -59.8037h-271.079c-32.9746 0 -59.8037 26.8271 -59.8037 59.8037v210.633
c0 32.9717 26.8281 59.7959 59.8037 59.7959h22.5176v68.7471c0 62.3203 50.7012 113.021 113.021 113.021s113.021 -50.7012 113.021 -113.021v-68.748h22.5176zM163.057 334.979v-68.7471h28.3115v68.7471c0 35.6455 28.9941 64.6436 64.6318 64.6436
s64.6318 -28.999 64.6318 -64.6436v-68.7471h28.3115v68.7471c0 51.249 -41.6943 92.9434 -92.9434 92.9434s-92.9434 -41.6943 -92.9434 -92.9434zM300.554 334.979c0 24.5732 -19.9863 44.5645 -44.5537 44.5645s-44.5537 -19.9912 -44.5537 -44.5645v-68.7471h89.1074
v68.7471zM431.265 -4.19629v210.632c0 21.8994 -17.8193 39.7168 -39.7246 39.7168h-32.5566h-48.3896h-109.187h-48.3896h-32.5566c-21.9043 0 -39.7246 -17.8184 -39.7246 -39.7168v-210.632c0 -21.9033 17.8193 -39.7246 39.7246 -39.7246h271.079
c21.9043 0 39.7246 17.8203 39.7246 39.7246zM407.571 168.998c5.54395 0 10.0391 -4.49512 10.0391 -10.0391v-88.5068c0 -5.54297 -4.49609 -10.0391 -10.0391 -10.0391s-10.0391 4.49512 -10.0391 10.0391v88.5068c0 5.54297 4.49512 10.0391 10.0391 10.0391z
M407.333 202.123c12.9424 0 12.9199 -20.0791 0 -20.0781c-12.9414 0 -12.9189 20.0781 0 20.0781z" />
    <glyph glyph-name="uniF10C" unicode="&#xf10c;" 
d="M256 448c99.252 0 180 -80.748 180 -180c0 -32.5391 -8.7793 -64.4277 -25.3887 -92.2197l-139.243 -232.488c-2.6875 -4.48828 -7.51953 -7.25098 -12.75 -7.29199h-0.119141c-5.18555 0 -10.0078 2.67969 -12.7451 7.09082l-142.885 230.257
c-17.5801 28.3926 -26.8691 61.1182 -26.8691 94.6523c0 99.252 80.748 180 180 180zM384.866 191.182c13.8232 23.1299 21.2334 49.6973 21.2334 76.8184c0 82.71 -67.3896 150.2 -150.1 150.2s-150.2 -67.4902 -150.2 -150.2
c0 -27.9502 7.93457 -55.2139 22.5674 -78.8457l129.905 -209.34zM256 358c49.626 0 90 -40.374 90 -90c0 -48.7666 -39.0967 -90 -90 -90c-50.2832 0 -90 40.6914 -90 90c0 49.626 40.374 90 90 90zM256 207.8c33.7842 0 60.0996 27.5176 60.0996 60.2002
c0 33.084 -27.0156 60.2002 -60.0996 60.2002s-60.2002 -27.1162 -60.2002 -60.2002c0 -33.167 26.9434 -60.2002 60.2002 -60.2002z" />
    <glyph glyph-name="uniF101" unicode="&#xf101;" 
d="M500.395 353.217c3.3623 1.49023 7.30176 0.580078 9.66504 -2.23438c2.36621 -2.8125 2.58789 -6.85059 0.544922 -9.90625c-13.4492 -20.1182 -29.9766 -37.6221 -49.1738 -52.085c0.0927734 -3.03613 0.138672 -6.08105 0.138672 -9.09766
c0 -72.1904 -27.9053 -145.252 -76.5615 -200.451c-39.0195 -44.2676 -109.023 -97.0371 -220.927 -97.0371c-56.9229 0 -112.35 16.2451 -160.284 46.9805c-3.23828 2.07617 -4.6123 6.11426 -3.31641 9.73633c1.29688 3.62012 4.93652 5.86816 8.74414 5.41504
c7.66309 -0.90625 15.4932 -1.36426 23.2793 -1.36426c37.3135 0 72.8574 10.1973 103.939 29.665c-37.4756 8.42969 -68.4746 36.0791 -80.5146 73.6699c-0.890625 2.77441 -0.250977 5.81348 1.68164 7.99414c1.92871 2.18164 4.87012 3.18457 7.73047 2.6377
c2.77539 -0.530273 5.56836 -0.93457 8.3623 -1.21387c-32.5283 19.3975 -53.8047 54.9883 -53.8047 94.5195c0 0.494141 0 0.981445 0.0117188 1.46875c0.0664062 2.8916 1.63965 5.53809 4.15039 6.97656c2.50879 1.43848 5.59082 1.45996 8.11621 0.0546875
c4.7041 -2.61133 9.63184 -4.80957 14.7109 -6.56934c-16.7031 19.6348 -26.1582 44.7627 -26.1582 71.2461c0 19.4443 5.14844 38.5547 14.8857 55.2646c1.36426 2.33984 3.79102 3.86328 6.49121 4.07422c2.69824 0.216797 5.33496 -0.915039 7.0459 -3.01367
c48.0117 -58.8955 117.93 -95.8604 193.136 -102.463c-0.597656 4.68066 -0.900391 9.42676 -0.900391 14.2002c0 60.6045 49.3076 109.91 109.914 109.91c28.7109 0 56.4844 -11.3711 76.9336 -31.3525c20.2998 4.47266 39.6602 12.1211 57.6045 22.7637
c2.95215 1.74902 6.67578 1.49316 9.35645 -0.643555c2.68359 -2.13574 3.76562 -5.70996 2.72168 -8.97461c-4.65527 -14.5674 -12.2822 -27.8799 -22.2861 -39.1934c8.44922 2.44434 16.7188 5.45508 24.7627 9.02246z" />
    <glyph glyph-name="uniF10E" unicode="&#xf10e;" 
d="M224.182 277.035c1.79492 -7.17969 2.99121 -14.957 2.99121 -24.5293c0 -18.5459 -3.58984 -32.3057 -11.9648 -41.2793c-8.37598 -8.97363 -19.1445 -13.7598 -33.5029 -13.7598c-8.375 0 -16.1523 2.39258 -23.332 5.98242
c-7.17871 3.58984 -12.5625 9.57227 -16.1523 17.9473c-4.1875 8.37598 -5.98242 17.9482 -5.98242 29.9131c0 12.5635 1.19629 23.332 4.78613 31.708c2.99121 8.375 7.77734 14.9561 14.3574 19.1436c6.58105 4.18848 15.5547 6.58105 25.7256 6.58105
c7.17871 0 13.7598 -1.19629 19.7422 -3.58984c5.38477 -2.39258 10.1709 -5.98242 14.3584 -10.7686s7.17871 -10.7686 8.97363 -17.3486zM196.063 224.986c2.39355 6.58105 3.58984 16.1533 4.1875 28.7168c0 12.5625 -1.19629 21.5371 -4.1875 27.5195
c-2.39258 5.38379 -7.77734 8.375 -14.3584 8.375c-4.78516 0 -8.375 -1.19629 -11.3662 -4.1875c-2.39355 -2.39258 -4.18848 -6.58105 -5.38477 -11.9648c-1.19629 -5.38477 -1.79492 -11.9648 -1.79492 -20.3408s0.598633 -15.5547 1.79492 -20.9395
c0.598633 -5.38379 2.39355 -8.97363 5.38477 -11.9648s6.58105 -4.1875 11.3662 -4.1875c7.17969 0 11.9658 2.99121 14.3584 8.97363zM326.483 307.546c1.79492 -1.79492 2.99121 -3.58984 2.99121 -6.58105c0 -1.79492 -1.79492 -5.98242 -5.98242 -11.3672
l-120.848 -195.031c-2.99121 -5.38477 -6.58105 -7.77734 -10.1709 -7.77734c-2.39258 0 -4.1875 0.598633 -6.58008 2.39258c-2.39355 1.79492 -3.58984 3.58984 -3.58984 6.58105c0 1.79492 1.19629 4.18848 2.99121 7.17969l121.446 196.826
c1.79492 3.58984 3.58984 5.98242 5.38379 7.77734c1.79492 1.79492 4.18848 2.39258 7.17969 2.39258s5.38379 -0.597656 7.17871 -2.39258zM373.147 171.741c1.79492 -7.17871 2.99121 -14.9561 2.99121 -24.5283c0 -18.5459 -3.58887 -32.3057 -11.9648 -41.2793
c-8.37598 -8.97461 -19.1445 -13.7598 -33.502 -13.7598c-8.37598 0 -16.1533 2.39258 -23.332 5.98242c-6.58105 4.1875 -11.9658 10.1699 -16.1533 17.9473c-4.1875 8.37598 -5.98242 17.9482 -5.98242 29.9131c0 18.5459 3.58887 32.9043 10.7686 42.4766
c7.17871 9.57129 18.5459 14.3574 34.1006 14.3574c7.77734 0 14.3584 -1.19629 19.7422 -3.58887c5.38477 -1.79492 10.1709 -5.38477 14.3584 -10.1709c3.58984 -4.1875 6.58105 -10.1699 8.97363 -17.3496zM344.432 120.291
c2.99121 5.9834 4.1875 15.5547 4.78613 29.3154c0 12.5625 -1.19727 21.5371 -4.18848 27.5195c-2.39258 5.38379 -7.77734 8.375 -14.3574 8.375c-4.78613 0 -8.37598 -1.19629 -11.3672 -4.1875s-4.78613 -6.58105 -5.98242 -11.9648
c-1.19727 -4.78613 -1.79492 -11.9648 -1.79492 -20.3408c0 -13.1621 1.19629 -22.7334 4.1875 -28.7168c2.39355 -5.98242 7.17969 -8.97363 14.3584 -8.97363s11.9648 2.99121 14.3584 8.97363zM482.629 192.082l26.3232 -43.0742
c2.99121 -4.78613 1.19629 -10.7686 -2.99121 -14.3584l-40.6816 -29.9131l7.77734 -50.2529c1.19629 -5.38477 -2.39355 -10.7686 -7.77734 -11.9648l-49.0576 -11.9658l-11.9648 -49.0566c-1.19629 -5.38477 -6.58105 -8.37598 -11.9648 -7.77734l-50.2539 7.77734
l-29.9131 -40.6816c-3.58887 -4.78613 -9.57129 -5.98242 -14.3574 -2.99121l-43.0752 26.3232l-43.0742 -26.3232c-1.79492 -1.19629 -3.58984 -1.79492 -5.38379 -1.79492c-2.99121 0 -6.58105 1.19629 -8.37598 4.1875l-29.9131 40.6816l-50.2529 -7.77734
c-5.38477 -1.19629 -10.7686 2.39355 -11.9658 7.77734l-11.9648 49.0576l-49.0566 11.9648c-5.38477 1.19629 -8.37598 6.58105 -7.77734 11.9648l8.375 50.2539l-40.6816 29.9131c-4.78516 3.58887 -5.98242 9.57129 -2.99121 14.3574l26.3232 43.0752l-26.3232 43.0742
c-2.99121 4.78613 -1.19629 11.3672 2.99121 14.3584l40.6816 29.9121l-7.77734 50.2539c-1.19629 5.38477 2.39355 10.7686 7.77734 11.9648l49.0576 11.9658l11.9648 49.6553c1.19629 5.38379 6.58105 8.375 11.9648 7.77734l50.2539 -7.77734l29.9131 40.6807
c3.58887 4.78613 9.57129 5.9834 14.3574 2.99219l43.0752 -26.3242l43.0742 25.7256c4.78613 2.99121 10.7686 1.19629 14.3584 -2.99121l29.9121 -40.6816l50.2539 7.77734c5.38477 1.19629 10.7686 -2.39258 11.9648 -7.77734l11.9658 -49.0566l49.6553 -11.9658
c5.38379 -1.19629 8.375 -6.58008 7.77734 -11.9648l-7.77734 -50.2539l40.6807 -29.9121c4.78613 -2.99121 5.9834 -9.57227 1.19727 -13.7598zM449.126 116.702l38.2891 28.1182l-24.5293 40.6807c-1.79395 3.58984 -1.79395 7.77734 0 11.3672l25.127 40.6816
l-38.2881 28.1182c-2.99121 2.39258 -4.78613 5.98242 -4.1875 10.1699l7.17871 46.6641l-46.0654 11.3672c-3.58984 0.598633 -6.58105 3.58984 -7.77734 7.77734l-11.3672 46.0654l-46.6641 -7.17871c-3.58984 -0.598633 -7.77734 1.19629 -10.1699 4.1875
l-28.1182 38.2891l-40.6816 -24.5293c-3.58984 -1.79492 -7.77734 -1.79492 -11.3672 0l-40.6816 24.5293l-28.1182 -38.2891c-2.39258 -2.99121 -5.98242 -4.78613 -10.1699 -4.1875l-46.6641 7.17871l-11.3672 -46.0654
c-0.597656 -3.58984 -3.58887 -6.58105 -7.77734 -7.77734l-46.0654 -11.3672l7.17871 -46.6641c0.598633 -3.58887 -1.19629 -7.77734 -4.1875 -10.1699l-38.2881 -28.1182l24.5283 -40.6816c1.79492 -3.58984 1.79492 -7.77734 0 -11.3672l-24.5283 -40.6807
l38.2881 -28.1182c2.99121 -2.39355 4.78613 -5.98242 4.1875 -10.1709l-7.17871 -46.6641l46.0654 -11.3662c3.58984 -0.598633 6.58105 -3.58984 7.77734 -7.77734l11.3672 -46.0664l46.6641 7.17969c3.58984 0.597656 7.77734 -1.19727 10.1699 -4.18848
l28.1182 -38.2881l40.6816 24.5283c1.79492 1.19727 3.58984 1.79492 5.38477 1.79492s3.58887 -0.597656 5.38379 -1.79492l40.6816 -24.5283l28.1182 38.2881c2.39258 2.99121 5.98242 4.78613 10.1699 4.18848l46.6641 -7.17969l11.3672 46.0664
c0.598633 3.58887 3.58984 6.58008 7.77734 7.77734l46.0654 11.3662l-7.17871 46.6641c-0.598633 3.58984 1.19629 7.77734 4.1875 10.1709z" />
    <glyph glyph-name="uniF108" unicode="&#xf108;" 
d="M73.4717 265.469c40.5107 0 73.4697 -32.957 73.4697 -73.4697s-32.957 -73.4697 -73.4697 -73.4697s-73.4717 32.957 -73.4717 73.4697s32.959 73.4697 73.4717 73.4697zM73.4717 151.035c22.5869 0 40.9658 18.377 40.9658 40.9658
c0 22.5879 -18.3779 40.9658 -40.9658 40.9658c-22.5908 0 -40.9678 -18.3779 -40.9678 -40.9658c0 -22.5889 18.377 -40.9658 40.9678 -40.9658zM256.001 265.469c40.5107 0 73.4697 -32.957 73.4697 -73.4697s-32.957 -73.4697 -73.4697 -73.4697
s-73.4697 32.957 -73.4697 73.4697s32.957 73.4697 73.4697 73.4697zM256.001 151.035c22.5869 0 40.9658 18.377 40.9658 40.9658c0 22.5879 -18.3779 40.9658 -40.9658 40.9658c-22.5889 0 -40.9658 -18.3779 -40.9658 -40.9658
c0 -22.5889 18.377 -40.9658 40.9658 -40.9658zM438.53 265.469c40.5107 0 73.4717 -32.957 73.4717 -73.4697s-32.959 -73.4697 -73.4717 -73.4697s-73.4697 32.957 -73.4697 73.4697s32.957 73.4697 73.4697 73.4697zM438.53 151.035
c22.5889 0 40.9678 18.377 40.9678 40.9658c0 22.5879 -18.3779 40.9658 -40.9678 40.9658c-22.5889 0 -40.9658 -18.3779 -40.9658 -40.9658c0 -22.5889 18.377 -40.9658 40.9658 -40.9658z" />
    <glyph glyph-name="uniF116" unicode="&#xf116;" 
d="M466.286 118.857c25.1426 0 45.7139 -20.5713 45.7139 -45.7148v-36.5713c0 -25.1426 -20.5713 -45.7139 -45.7139 -45.7139h-54.8574c-25.1426 0 -45.7148 20.5713 -45.7148 45.7139v36.5713c0 25.1436 20.5723 45.7148 45.7148 45.7148h18.2852v45.7139
c0 15.0859 -12.3428 27.4287 -27.4277 27.4287h-137.144v-73.1426h18.2861c25.1426 0 45.7139 -20.5713 45.7139 -45.7148v-36.5713c0 -25.1426 -20.5713 -45.7139 -45.7139 -45.7139h-54.8574c-25.1426 0 -45.7139 20.5713 -45.7139 45.7139v36.5713
c0 25.1436 20.5713 45.7148 45.7139 45.7148h18.2861v73.1426h-137.144c-15.085 0 -27.4277 -12.3428 -27.4277 -27.4287v-45.7139h18.2852c25.1426 0 45.7148 -20.5713 45.7148 -45.7148v-36.5713c0 -25.1426 -20.5723 -45.7139 -45.7148 -45.7139h-54.8574
c-25.1426 0 -45.7139 20.5713 -45.7139 45.7139v36.5713c0 25.1436 20.5713 45.7148 45.7139 45.7148h18.2861v45.7139c0 25.1426 20.5713 45.7148 45.7139 45.7148h137.144v54.8564h-18.2861c-25.1426 0 -45.7139 20.5713 -45.7139 45.7148v36.5713
c0 25.1426 20.5713 45.7139 45.7139 45.7139h54.8574c25.1426 0 45.7139 -20.5713 45.7139 -45.7139v-36.5713c0 -25.1436 -20.5713 -45.7148 -45.7139 -45.7148h-18.2861v-54.8564h137.144c25.1426 0 45.7139 -20.5723 45.7139 -45.7148v-45.7139h18.2861zM100.571 100.571
h-54.8574c-15.085 0 -27.4277 -12.3428 -27.4277 -27.4287v-36.5713c0 -15.0859 12.3428 -27.4287 27.4277 -27.4287h54.8574c15.0859 0 27.4287 12.3428 27.4287 27.4287v36.5713c0 15.0859 -12.3428 27.4287 -27.4287 27.4287zM283.429 100.571h-54.8574
c-15.0859 0 -27.4287 -12.3428 -27.4287 -27.4287v-36.5713c0 -15.0859 12.3428 -27.4287 27.4287 -27.4287h54.8574c15.0859 0 27.4287 12.3428 27.4287 27.4287v36.5713c0 15.0859 -12.3428 27.4287 -27.4287 27.4287zM228.571 283.429h54.8574
c15.0859 0 27.4287 12.3428 27.4287 27.4287v36.5713c0 15.0859 -12.3428 27.4287 -27.4287 27.4287h-54.8574c-15.0859 0 -27.4287 -12.3428 -27.4287 -27.4287v-36.5713c0 -15.0859 12.3428 -27.4287 27.4287 -27.4287zM493.714 36.5713v36.5713
c0 15.0859 -12.3428 27.4287 -27.4277 27.4287h-54.8574c-15.0859 0 -27.4287 -12.3428 -27.4287 -27.4287v-36.5713c0 -15.0859 12.3428 -27.4287 27.4287 -27.4287h54.8574c15.085 0 27.4277 12.3428 27.4277 27.4287z" />
    <glyph glyph-name="uniF105" unicode="&#xf105;" 
d="M505.664 204.261c8.53223 -6.02734 8.36328 -18.626 -0.00292969 -24.5195l-54.7832 -38.6221c-9.85156 -6.94434 -23.6436 0.0478516 -23.6436 12.2598v23.6211h-263.038c-8.28418 0 -15.001 6.71484 -15.001 15s6.7168 15.001 15.001 15.001h263.04v23.6221
c0 12.1318 13.7188 19.2568 23.6445 12.2598zM430.471 95.6826c7.1709 -4.14844 9.62109 -13.3242 5.47461 -20.4961c-40.5098 -70.0264 -116.18 -116.789 -202.343 -116.789c-129.124 0 -233.603 104.489 -233.603 233.603c0 129.124 104.49 233.603 233.603 233.603
c86.126 0 161.815 -46.7295 202.342 -116.787c4.14648 -7.17188 1.69629 -16.3486 -5.47461 -20.4961c-7.16797 -4.14551 -16.3477 -1.69824 -20.4961 5.47363c-35.2148 60.876 -101.052 101.809 -176.371 101.809c-112.266 0 -203.602 -91.3359 -203.602 -203.602
s91.3359 -203.602 203.602 -203.602c75.2695 0 141.137 40.8945 176.372 101.811c4.14941 7.17188 13.3271 9.62012 20.4961 5.47363z" />
    <glyph glyph-name="uniF112" unicode="&#xf112;" 
d="M488.399 -44c5.52246 0 10 -4.47656 10 -10s-4.47754 -10 -10 -10h-464.799c-5.52246 0 -10 4.47656 -10 10s4.47754 10 10 10h23.1162v90.2041c0 14.8223 12.0596 26.8818 26.8818 26.8818h49.0254c14.8223 0 26.8818 -12.0586 26.8818 -26.8818v-90.2041h55.6924
v174.175c0 14.8223 12.0586 26.8818 26.8818 26.8818h49.0234c14.8232 0 26.8828 -12.0586 26.8828 -26.8818v-174.175h55.6914v318.464c0 14.8223 12.0596 26.8818 26.8818 26.8818h49.0244c14.8223 0 26.8818 -12.0586 26.8818 -26.8818v-318.464h21.9336zM129.504 -44
v90.2041c0 3.79492 -3.08691 6.88184 -6.88184 6.88184h-49.0244c-3.79492 0 -6.88184 -3.08691 -6.88184 -6.88184v-90.2041h62.7881zM287.985 -44v174.175c0 3.79492 -3.08789 6.88184 -6.88281 6.88184h-49.0234c-3.79492 0 -6.88184 -3.08691 -6.88184 -6.88184
v-174.175h62.7881zM446.466 -44v318.464c0 3.79492 -3.08691 6.88184 -6.88184 6.88184h-49.0244c-3.79492 0 -6.88184 -3.08691 -6.88184 -6.88184v-318.464h62.7881zM466.442 437.484c0.00683594 -0.162109 0.0234375 -0.321289 0.0234375 -0.484375v-56.9531
c0 -5.52246 -4.47656 -10 -10 -10c-5.52246 0 -10 4.47754 -10 10v33.8105l-105.928 -105.928c-3.90625 -3.9043 -10.2383 -3.9043 -14.1436 0l-37.2793 37.2803l-172.698 -172.699c-1.95215 -1.95312 -4.51172 -2.92871 -7.07129 -2.92871
c-2.55859 0 -5.11816 0.975586 -7.07031 2.92676c-3.90527 3.90625 -3.90527 10.2383 0 14.1436l179.769 179.77c1.875 1.875 4.41895 2.92871 7.07129 2.92871c2.65137 0 5.19531 -1.05371 7.07031 -2.92871l37.2803 -37.2803l98.8574 98.8584h-37.3574
c-5.52246 0 -10 4.47656 -10 10s4.47754 10 10 10h60.5c0.164062 0 0.323242 -0.0166016 0.484375 -0.0244141c2.72852 0.141602 5.50391 -0.819336 7.58789 -2.90332s3.04395 -4.85938 2.9043 -7.58789zM65.6396 144.69c0 5.52246 4.47754 10 10 10
c5.52344 0 10 -4.47754 10 -10c0 -5.52344 -4.47656 -10 -10 -10c-5.52246 0 -10 4.47656 -10 10z" />
    <glyph glyph-name="uniF103" unicode="&#xf103;" 
d="M437.111 10.8887c-99.8516 -99.8516 -262.371 -99.8516 -362.223 0s-99.8516 262.371 0 362.223s262.371 99.8516 362.223 0s99.8516 -262.371 0 -362.223zM92.958 355.042c-89.8242 -89.9287 -89.9287 -236.155 0 -326.084s236.155 -89.9287 326.084 0
s89.9287 236.155 0 326.084s-236.155 89.9287 -326.084 0zM256 96.1172c-7.10254 0 -12.8467 5.74512 -12.5332 12.9521v70.293h-70.293c-6.99805 -0.104492 -12.7432 5.63965 -12.7432 12.7422c-0.104492 6.99805 5.64062 12.7422 12.7432 12.7422h70.293v70.293
c-0.104492 6.99805 5.63965 12.7432 12.7422 12.7432c6.99805 0.104492 12.7422 -5.64062 12.7422 -12.7432v-70.293h70.293c6.99805 0.104492 12.7432 -5.63965 12.7432 -12.7422c0 -3.55078 -1.46289 -6.78906 -3.76074 -9.08691
c-2.40234 -2.29785 -5.53516 -3.75977 -9.08691 -3.75977h-70.293v-70.293c0 -3.55176 -1.46191 -6.78906 -3.75977 -9.08691c-2.40234 -2.29785 -5.53613 -3.76074 -9.08691 -3.76074z" />
    <glyph glyph-name="uniF10B" unicode="&#xf10b;" 
d="M255.893 448c113.134 0 205.229 -92.0957 205.444 -205.229c0 -12.8799 -1.28809 -25.8682 -3.64941 -38.5342c-0.107422 -0.750977 -0.537109 -3.00488 -1.39551 -6.86914c-3.11328 -13.9541 -7.72852 -27.4785 -13.7393 -40.4668
c-22.1113 -52.0586 -70.8428 -132.025 -177.429 -217.681c-2.68359 -2.14648 -5.9043 -3.21973 -9.12402 -3.21973s-6.44043 1.07324 -9.12402 3.21973c-106.693 85.6553 -155.317 165.622 -177.429 217.681c-6.01074 12.9883 -10.626 26.6201 -13.7393 40.4668
c-0.858398 3.86426 -1.28809 6.11816 -1.39551 6.86914c-2.46875 12.666 -3.64941 25.6543 -3.64941 38.5342c0 113.134 92.0957 205.229 205.229 205.229zM428.921 209.281c2.14648 10.9482 3.21973 22.2188 3.21973 33.5967c0 97.1406 -79.1074 176.248 -176.248 176.248
s-176.248 -79.1074 -176.248 -176.248c0 -11.2705 1.07324 -22.4336 3.21973 -33.4893c0 -0.322266 0.107422 -0.537109 0.107422 -0.750977c0.107422 -0.537109 0.322266 -2.14746 0.96582 -4.61621v-0.214844c2.79102 -12.0215 6.7627 -23.8281 11.915 -34.9912
c0.107422 -0.107422 0.107422 -0.322266 0.214844 -0.429688c20.0723 -47.5508 64.0801 -120.11 159.825 -199.219c95.7451 79.1084 139.754 151.668 159.825 199.219c0.107422 0.107422 0.107422 0.322266 0.214844 0.429688
c5.25977 11.2705 9.23145 22.9697 11.915 34.9912v0.214844c0.536133 2.46875 0.858398 4.0791 0.96582 4.61621c0 0.213867 0.107422 0.428711 0.107422 0.643555zM255.893 370.824c71.8086 0 130.308 -58.499 130.308 -130.308s-58.499 -130.308 -130.308 -130.308
s-130.308 58.499 -130.308 130.308s58.499 130.308 130.308 130.308zM255.893 139.189c55.9229 0 101.327 45.5117 101.327 101.327s-45.5117 101.326 -101.327 101.326s-101.326 -45.5107 -101.326 -101.326s45.4033 -101.327 101.326 -101.327z" />
    <glyph glyph-name="uniF100" unicode="&#xf100;" 
d="M256 448c141.376 0 256 -106.144 256 -237.056s-114.624 -237.024 -256 -237.024c-25.5361 0 -50.1758 3.48828 -73.4404 9.91992l-87.168 -47.8398v90.4004c-58.1758 43.4561 -95.3916 109.983 -95.3916 184.575c0 130.912 114.624 237.024 256 237.024zM281.44 128.8
l139.936 148.544l-125.6 -69.5361l-66.7842 69.5361l-139.937 -148.544l127.2 69.5361z" />
    <glyph glyph-name="uniF113" unicode="&#xf113;" 
d="M254.145 172.12c-31.0654 0.530273 -56.1934 11.4512 -74.6426 32.3379c-40.8203 46.0156 -34.0342 124.898 -33.292 132.427c2.65039 56.9355 29.793 83.9727 52.0586 96.5898c22.1602 12.6172 45.2734 14.5254 57.042 14.5254h0.636719h0.423828h0.742188
c21.417 -0.423828 40.6084 -5.51367 57.042 -14.9492c22.0537 -12.6172 48.7725 -39.6543 51.4229 -96.166c0.742188 -7.52832 7.52734 -86.4111 -33.292 -132.427c-18.5547 -20.8867 -43.6836 -31.8076 -74.749 -32.3379h-1.05957h-0.636719h-1.69629zM174.519 334.234
c-0.105469 -0.636719 -7.31543 -73.0527 26.2949 -110.798c13.2529 -15.0557 31.1719 -22.4775 54.4971 -22.6895h0.530273v0h0.530273c23.4316 0.211914 41.2441 7.63379 54.6035 22.6895c33.7158 37.958 26.2939 110.056 26.1885 110.798
c-0.106445 0.211914 -0.106445 0.529297 -0.106445 0.847656c-3.28613 71.8857 -51.9521 83.5488 -80.5791 84.1846h-0.848633h-0.423828c-23.1143 0 -77.0811 -8.16406 -80.5801 -84.1846c0 -0.211914 -0.106445 -0.530273 -0.106445 -0.847656zM473.725 41.2842
c0.106445 -5.51367 0.211914 -33.8223 -5.08887 -47.9238c-1.06055 -2.75684 -3.0752 -5.08984 -5.51367 -6.67969c-3.18066 -2.01465 -79.4141 -50.6807 -206.963 -50.6807c-127.55 0 -203.782 48.5596 -206.963 50.6807
c-2.54492 1.58984 -4.45312 3.92285 -5.51367 6.67969c-5.61914 14.207 -5.51367 42.5166 -5.40723 48.0293v0.318359c0.106445 0.848633 0.106445 1.69629 0.106445 2.65039c0.635742 20.8877 2.01367 69.9775 48.0293 85.7754
c0.318359 0.106445 0.636719 0.211914 1.06055 0.318359c48.0293 12.1924 87.5771 39.7598 88.002 40.0771c6.4668 4.55957 15.373 2.96875 19.9326 -3.49805c4.55859 -6.46777 2.96875 -15.374 -3.49902 -19.9336c-1.80273 -1.16602 -44.001 -30.6416 -96.8018 -44.2129
c-24.7041 -8.7998 -27.4609 -35.2002 -28.2031 -59.374c0 -0.954102 -0.105469 -1.80273 -0.105469 -2.65137c-0.212891 -9.54199 0.529297 -24.2793 2.22656 -32.7617c17.2822 -9.75391 85.0322 -43.5762 187.029 -43.5762c102.422 0 169.748 33.7158 186.924 43.4707
c1.69727 8.48145 2.33301 23.2197 2.22656 32.7617c-0.105469 0.847656 -0.105469 1.69629 -0.105469 2.65039c-0.742188 24.1738 -3.49902 50.5742 -28.2031 59.375c-52.8008 13.5713 -94.999 42.9404 -96.8018 44.2129
c-6.46777 4.55859 -8.05762 13.4648 -3.49902 19.9326c4.55957 6.46777 13.4658 8.05762 19.9326 3.49902c0.424805 -0.318359 40.1846 -27.8848 88.002 -40.0781c0.318359 -0.105469 0.742188 -0.211914 1.06055 -0.318359
c46.0156 -15.6914 47.3936 -64.7812 48.0293 -85.7744c0 -0.954102 0.106445 -1.80273 0.106445 -2.65137v-0.317383z" />
    <glyph glyph-name="uniF117" unicode="&#xf117;" 
d="M427.6 196.809c7.78027 0 14.2188 -6.41113 14.2188 -14.7676v-216.477c0 -7.78418 -6.43848 -14.252 -14.2188 -14.252h-133.618c-8.31738 0 -14.7568 6.46777 -14.7568 14.252v82.3672h-46.6826v-82.3672c0 -7.78418 -6.43945 -14.252 -14.2188 -14.252h-134.156
c-7.77832 0 -14.2178 6.46777 -14.2178 14.252v209.78c0 7.78516 6.43945 14.2529 14.2178 14.2529c8.32324 0 14.7568 -6.46777 14.7568 -14.2529v-195.013h104.374v82.3662c0 7.72852 6.70312 14.4824 15.0254 14.4824h75.6582
c7.78516 0 14.2246 -6.75488 14.2246 -14.4824v-82.3662h104.638v201.71c0 8.35547 6.44043 14.7666 14.7559 14.7666zM507.821 185.304c5.76953 -5.83887 5.36816 -15.5693 0 -20.9492c-2.9541 -2.4043 -6.43945 -3.77832 -10.4639 -3.77832
c-4.56152 0 -8.05957 1.37402 -10.4629 3.77832l-230.741 232.904l-231.279 -230.729c-5.78711 -5.78027 -15.0254 -6.18164 -20.3887 0c-6.16992 5.32324 -5.78711 14.5967 0 20.3779l241.204 241.203c2.94824 2.91992 6.43945 4.58008 10.4639 4.58008
c3.48633 0 6.98242 -1.60352 9.9248 -4.58008l96.0527 -96.6191v50.4844c0 8.2998 6.43848 14.7109 14.2227 14.7109c8.31738 0 15.0254 -6.41016 15.0254 -14.7109v-79.7334z" />
    <glyph glyph-name="uniF110" unicode="&#xf110;" 
d="M409.72 82.0137c26.2393 -13.124 42.5469 -39.5088 42.5469 -68.8467v-25.9668c0 -40.499 -128.384 -51.2002 -196.267 -51.2002s-196.267 10.7012 -196.267 51.2002v27.6309c0 28.1943 15.3682 54.084 40.124 67.5928l76.126 41.5225
c7.24414 3.95996 11.75 11.5371 11.75 19.7979v28.2363c-5.71777 7.48438 -22.0762 30.8057 -29.8926 61.7559c-8.05566 6.45996 -12.7744 16.1455 -12.7744 26.5303v34.1338c0 8.2168 3.07227 16.1787 8.5332 22.3994v45.3887
c-0.477539 4.69336 -2.35449 32.6406 17.8525 55.6885c17.5273 19.9854 45.9688 30.123 84.5479 30.123s67.0205 -10.1377 84.5479 -30.1309c20.207 -23.0488 18.3301 -50.9873 17.8525 -55.6807v-45.3887c5.46094 -6.2207 8.5332 -14.1826 8.5332 -22.3994v-34.1338
c0 -13.4395 -7.81641 -25.3438 -19.8574 -30.8652c-6.16113 -17.9287 -14.6348 -34.5508 -25.207 -49.4844c-2.125 -3.00391 -4.18164 -5.72559 -6.13574 -8.11523v-28.8516c0 -8.60156 4.77832 -16.333 12.4668 -20.1807zM435.2 -12.7998v25.9668
c0 22.8438 -12.6895 43.375 -33.1182 53.5889l-81.5186 40.7559c-13.5088 6.75781 -21.8965 20.335 -21.8965 35.4385v35.2002l2.12402 2.42383c2.14258 2.43164 4.6084 5.61426 7.14258 9.20703c10.3428 14.5918 18.4746 30.9932 24.1836 48.751l1.36523 4.22363
l4.25 1.30566c7.25293 2.23633 12.1338 8.75586 12.1338 16.2051v34.1338c0 4.78711 -2.03027 9.25 -5.7168 12.5781l-2.81641 2.54297l0.0771484 54.2627c0.0166016 0.205078 2.76465 24.2354 -13.8496 43.0166c-14.1572 16.0176 -38.2383 24.1328 -71.5605 24.1328
c-33.4424 0 -57.5742 -8.1748 -71.7139 -24.3027c-16.623 -18.9619 -13.7217 -42.6162 -13.6963 -42.8467l0.0771484 -1.11719v-53.1455l-2.81641 -2.53516c-3.68652 -3.33594 -5.7168 -7.79883 -5.7168 -12.5859v-34.1338c0 -5.76855 2.95215 -11.1191 7.89258 -14.3105
l2.91016 -1.87695l0.776367 -3.37891c7.97852 -34.7393 28.8936 -60.041 29.0986 -60.2881l1.98828 -2.37305v-34.2949c0 -14.498 -7.91016 -27.8359 -20.6504 -34.791l-76.126 -41.5225c-19.2598 -10.4961 -31.2236 -30.6602 -31.2236 -52.5996v-27.6309
c0 -11.5801 63.249 -34.1338 179.2 -34.1338s179.2 22.5537 179.2 34.1338z" />
    <glyph glyph-name="uniF104" unicode="&#xf104;" 
d="M349.063 448c27.5391 0 49.9463 -22.4062 49.9463 -49.9473v-6.04883v-71.0889v-91.415c0 -4.1416 -3.35645 -7.5 -7.5 -7.5c-4.14258 0 -7.5 3.3584 -7.5 7.5v62.9219c-5.57715 -3.84766 -12.3291 -6.1084 -19.6016 -6.1084
c-10.9727 0 -20.7588 5.13867 -27.1035 13.1279c-6.34375 -7.99023 -16.1318 -13.1279 -27.1016 -13.1279c-10.9717 0 -20.7588 5.13867 -27.1035 13.1279c-6.34375 -7.99023 -16.1309 -13.1279 -27.1016 -13.1279s-20.7578 5.13867 -27.1016 13.1279
c-6.34473 -7.99023 -16.1328 -13.1279 -27.1035 -13.1279s-20.7578 5.13867 -27.1016 13.1279c-6.34473 -7.99023 -16.1328 -13.1279 -27.1035 -13.1279c-7.27246 0 -14.0264 2.26074 -19.6016 6.1084v-240.258c0 -4.1416 -3.35742 -7.5 -7.5 -7.5
c-4.14355 0 -7.5 3.3584 -7.5 7.5v268.751v71.0889v6.04883c0 27.541 22.4062 49.9473 49.9463 49.9473h186.131zM167.19 320.915h0.000976562v63.5889h-39.2051v-63.5889c0 -10.8086 8.79297 -19.6016 19.6016 -19.6016s19.6025 8.79297 19.6025 19.6016zM221.395 320.915
h0.00195312v63.5889h-39.2051v-63.5889c0 -10.8086 8.79297 -19.6016 19.6016 -19.6016s19.6035 8.79297 19.6016 19.6016zM275.599 320.915h0.000976562v63.5889h-39.2031v-63.5889c0 -10.8086 8.79297 -19.6016 19.6016 -19.6016s19.6016 8.79297 19.6006 19.6016z
M329.804 320.915h0.000976562v63.5889h-39.2051v-63.5889c0 -10.8086 8.79395 -19.6016 19.6035 -19.6016c10.8086 0 19.6016 8.79297 19.6006 19.6016zM337.305 399.504v0.000976562h46.668c-0.763672 18.5977 -16.127 33.4951 -34.9092 33.4951h-186.131
c-18.7822 0 -34.1465 -14.8975 -34.9102 -33.4961h46.668h54.2061h54.2031h54.2051zM384.008 320.915h0.000976562v63.5889h-39.2051v-63.5889c0 -10.8086 8.79395 -19.6016 19.6035 -19.6016c10.8086 0 19.6016 8.79297 19.6006 19.6016zM391.51 206.667
c4.14258 0 7.5 -3.3584 7.49805 -7.5v-213.219c0 -27.542 -22.4072 -49.9482 -49.9473 -49.9482h-92.8975c-4.14355 0 -7.5 3.3584 -7.5 7.5s3.35645 7.5 7.5 7.5h92.8975c18.7842 0 34.1475 14.9004 34.9111 33.498h-255.949
c0.763672 -18.6006 16.1279 -33.499 34.9102 -33.499h62.8984c4.14258 0 7.5 -3.3584 7.5 -7.5s-3.35742 -7.5 -7.5 -7.5h-62.8984c-27.541 0 -49.9463 22.4072 -49.9463 49.9482v35.8838c0 4.1416 3.35645 7.5 7.5 7.5c4.14258 0 7.5 -3.3584 7.5 -7.5v-22.333h256.023
v199.669c0 4.1416 3.35742 7.5 7.5 7.5zM279.149 424.815c4.14258 0 7.5 -3.3584 7.5 -7.5c0 -4.14258 -3.35742 -7.5 -7.5 -7.5h-48.418c-4.14258 0 -7.5 3.35742 -7.5 7.5c0 4.1416 3.35645 7.5 7.5 7.5h48.418zM331.29 201.366
c6.0957 0 11.0547 -4.95898 11.0547 -11.0547v-10.6172c0 -6.0957 -4.95898 -11.0547 -11.0547 -11.0547h-0.445312l-16.4883 -59.1562c3.45898 -1.87012 5.81445 -5.53027 5.81445 -9.73145v-10.6182c0 -6.09473 -4.95898 -11.0537 -11.0537 -11.0537h-106.238
c-6.09473 0 -11.0537 4.95898 -11.0537 11.0537v10.6182c0 4.20117 2.35547 7.86133 5.81445 9.73145l-16.4883 59.1562h-0.445312c-6.0957 0 -11.0547 4.95898 -11.0547 11.0547v10.6172c0 6.0957 4.95898 11.0547 11.0547 11.0547h57.1221v46.7852
c0 9.09766 7.40625 16.5 16.5098 16.5s16.5098 -7.40234 16.5098 -16.5v-46.7852h60.4424zM252.827 248.151v-46.7852h3.01953v46.7852c0 0.826172 -0.677734 1.5 -1.50977 1.5s-1.50977 -0.673828 -1.50977 -1.5zM196.724 168.64l16.1201 -57.833h2.80664l-6.8291 57.833
h-12.0977zM305.17 93.0791v2.72656h-98.3457v-2.72656h98.3457zM223.925 168.64l6.8291 -57.833h17.7432v57.833h-24.5723zM263.498 110.807h17.7432l6.8291 57.833h-24.5723v-57.833zM299.152 110.807l16.1211 57.833h-12.0986l-6.8291 -57.833h2.80664zM256.007 183.64
h71.3359v2.72754h-142.692v-2.72754h71.3369h0.00976562h0.00976562zM300.291 49.1709c4.14258 0 7.5 -3.35742 7.5 -7.5c0 -4.1416 -3.35742 -7.5 -7.5 -7.5h-88.5869c-4.14355 0 -7.5 3.3584 -7.5 7.5c0 4.14258 3.35645 7.5 7.5 7.5h88.5869z" />
    <glyph glyph-name="uniF10D" unicode="&#xf10d;" 
d="M488.468 -0.90332c4.14258 0 7.5 -3.35742 7.5 -7.5c0 -4.1416 -3.35645 -7.5 -7.5 -7.5h-464.936c-4.14258 0 -7.5 3.3584 -7.5 7.5c0 4.14258 3.35742 7.5 7.5 7.5h8.53223v222.503c-19.2666 12.3975 -32.0645 34.0146 -32.0645 58.5781
c0 1.30469 0.34082 2.58789 0.988281 3.72168l59.5127 104.147c4.17969 7.31445 12.0088 11.8574 20.4316 11.8574h350.135c8.42285 0 16.252 -4.54395 20.4316 -11.8574l59.5127 -104.147c0.647461 -1.13379 0.988281 -2.41602 0.988281 -3.72168
c0 -24.5635 -12.7979 -46.1807 -32.0645 -58.5781v-222.503h8.53223zM15.5166 272.678c3.66699 -26.584 26.5322 -47.125 54.1084 -47.125c27.5742 0 50.4287 20.543 54.0967 47.125h-52.0908c-4.1416 0 -7.5 3.3584 -7.5 7.5c0 4.14258 3.3584 7.5 7.5 7.5h368.742
c4.14258 0 7.5 -3.35742 7.5 -7.5c0 -4.1416 -3.35742 -7.5 -7.5 -7.5h-52.0957c3.66797 -26.582 26.5215 -47.125 54.0967 -47.125c27.5762 0 50.4414 20.541 54.1084 47.125h-24.0488c-4.14258 0 -7.5 3.3584 -7.5 7.5c0 4.14258 3.35742 7.5 7.5 7.5h19.1416
l-53.1006 92.9277c-1.51465 2.65137 -4.35352 4.29883 -7.40723 4.29883h-350.135c-3.05371 0 -5.8916 -1.64746 -7.40723 -4.29883l-53.1016 -92.9277h19.1367c4.14258 0 7.5 -3.35742 7.5 -7.5c0 -4.1416 -3.35742 -7.5 -7.5 -7.5h-24.0439zM372.222 272.678h-108.193
c3.66797 -26.582 26.5215 -47.125 54.0967 -47.125c27.5742 0 50.4287 20.543 54.0967 47.125zM247.972 272.678h-108.193c3.66797 -26.582 26.5225 -47.125 54.0967 -47.125s50.4287 20.543 54.0967 47.125zM424.854 -0.904297v25.0811h-81.1924v-25.0811h81.1924z
M424.854 39.1768v137.308h-81.1924v-137.308h81.1924zM464.936 -0.904297v215.229c-7.08008 -2.43262 -14.6641 -3.77246 -22.5605 -3.77246c-27.0947 0 -50.624 15.5576 -62.125 38.207c-11.501 -22.6504 -35.0303 -38.207 -62.125 -38.207s-50.624 15.5576 -62.125 38.207
c-11.501 -22.6504 -35.0303 -38.207 -62.125 -38.207s-50.624 15.5576 -62.125 38.207c-11.501 -22.6504 -35.0303 -38.207 -62.125 -38.207c-7.89648 0 -15.4805 1.33984 -22.5605 3.77344v-215.229h281.598v184.888c0 4.1416 3.35645 7.5 7.5 7.5h96.1934
c4.14258 0 7.5 -3.3584 7.5 -7.5v-184.889h25.0801zM296.081 191.484c4.14258 0 7.5 -3.35742 7.5 -7.5v-152.308c0 -4.1416 -3.35742 -7.5 -7.5 -7.5h-216.437c-4.1416 0 -7.5 3.3584 -7.5 7.5v152.308c0 4.1416 3.3584 7.5 7.5 7.5h216.437zM288.581 39.1768v137.308
h-201.437v-137.308h201.437z" />
    <glyph glyph-name="uniF107" unicode="&#xf107;" 
d="M432.624 233.528c21.7402 0 39.4248 -17.6865 39.4248 -39.4258v-250.218c0 -4.35449 -3.53027 -7.88477 -7.88477 -7.88477h-361.659c-4.35449 0 -7.88477 3.53027 -7.88477 7.88477v250.218c0 21.7393 17.6846 39.4258 39.4248 39.4258h238.127v67.8105
c0 23.8525 -9.3623 46.2578 -26.3604 63.0928c-16.9941 16.8311 -39.4736 25.9287 -63.3555 25.7412c-48.501 -0.469727 -87.96 -40.874 -87.96 -90.0664v-36.6152c0 -4.35547 -3.53027 -7.88477 -7.88477 -7.88477h-42.0537c-4.35449 0 -7.88477 3.5293 -7.88477 7.88477
v36.3203c0 81.248 65.4082 147.725 145.806 148.187c0.288086 0.000976562 0.577148 0.00195312 0.864258 0.00195312c38.9609 0 75.6338 -15.1436 103.352 -42.7021c27.9238 -27.7646 43.3018 -64.6836 43.3018 -103.959v-67.8105h2.62793zM356.909 375.637
c20.0117 -19.8184 31.0332 -46.2051 31.0352 -74.2979v-67.8105h26.2822v67.8105c0 35.0449 -13.7266 67.9941 -38.6504 92.7764c-24.7383 24.5957 -57.4697 38.1152 -92.2354 38.1152c-0.258789 0 -0.511719 -0.00195312 -0.770508 -0.00292969
c-71.752 -0.412109 -130.126 -59.8135 -130.126 -132.416v-28.4355h26.2822v28.7305c0 57.8047 46.4648 105.281 103.577 105.836c28.1016 0.303711 54.5967 -10.4893 74.6055 -30.3057zM456.279 -48.2305v242.333c0 13.0449 -10.6113 23.6553 -23.6553 23.6553h-10.5127
h-42.0293h-246.037c-13.0439 0 -23.6553 -10.6104 -23.6553 -23.6553v-242.333h345.89zM297.578 97.7168c39.3223 -6.7832 69.3379 -41.1113 69.3359 -82.3418v-42.0527c0 -4.35547 -3.53027 -7.88574 -7.88477 -7.88574h-151.393
c-4.35449 0 -7.88477 3.53027 -7.88477 7.88574v42.0527c0 41.2305 30.0156 75.5586 69.3379 82.3418c-22.9639 6.27148 -39.8994 27.3047 -39.8994 52.2295c0 29.8545 24.2881 54.1436 54.1436 54.1436s54.1436 -24.2891 54.1436 -54.1436
c0 -24.9248 -16.9355 -45.958 -39.8994 -52.2295zM244.961 149.947c0 -21.1602 17.2148 -38.374 38.374 -38.374s38.374 17.2148 38.374 38.374s-17.2148 38.374 -38.374 38.374s-38.374 -17.2148 -38.374 -38.374zM351.146 -18.793v34.168
c0 37.3906 -30.4209 67.8105 -67.8115 67.8105s-67.8105 -30.4199 -67.8105 -67.8105v-34.168h135.622zM422.111 178.858c4.35352 0 7.88477 -3.53027 7.88477 -7.88574v-105.133c0 -4.35449 -3.53027 -7.88477 -7.88477 -7.88477
c-4.35547 0 -7.88574 3.53027 -7.88574 7.88477v105.133c0 4.35547 3.53027 7.88574 7.88574 7.88574zM422.111 44.2871c4.35352 0 7.88477 -3.53027 7.88477 -7.88477v-42.0537c0 -4.35449 -3.53027 -7.88477 -7.88477 -7.88477
c-4.35547 0 -7.88574 3.53027 -7.88574 7.88477v42.0537c0 4.35449 3.53027 7.88477 7.88574 7.88477zM80.5459 272.695c4.35449 0 7.88477 -3.53027 7.88477 -7.88574c0 -4.35449 -3.5293 -7.88477 -7.88477 -7.88477h-32.71c-4.35449 0 -7.88477 3.53027 -7.88477 7.88477
c0 4.35547 3.53027 7.88574 7.88477 7.88574h32.71zM95.2529 297.149c3.0791 -3.0791 3.0791 -8.07227 0 -11.1514c-1.53906 -1.54004 -3.55762 -2.30957 -5.5752 -2.30957c-2.0166 0 -4.03613 0.770508 -5.5752 2.30957l-20.8145 20.8154
c-3.0791 3.07812 -3.0791 8.07129 0 11.1504c3.07812 3.0791 8.07129 3.0791 11.1504 0zM95.042 243.623c3.08008 -3.08008 3.08008 -8.07324 0 -11.1504l-20.8154 -20.8145c-1.53809 -1.54004 -3.55762 -2.31055 -5.57422 -2.31055
c-2.01758 0 -4.03613 0.770508 -5.5752 2.31055c-3.0791 3.07812 -3.0791 8.07031 0 11.1494l20.8145 20.8154c3.07812 3.0791 8.07129 3.0791 11.1504 0z" />
    <glyph glyph-name="uniF115" unicode="&#xf115;" 
d="M505.241 445.5c3.33691 -3.33691 3.33691 -8.73047 0 -12.0664l-31.6338 -31.6348v-207.128l-243.217 -249.787c-5.93066 -5.92285 -13.6709 -8.88379 -21.4111 -8.88379c-7.70605 0 -15.3945 2.93555 -21.2568 8.79785l-174.649 174.649
c-5.68359 5.68359 -8.81543 13.2529 -8.81543 21.291c0 8.03906 3.13184 15.6084 8.81543 21.292l249.779 251.835h198.688l31.6338 31.6348c3.33691 3.33594 8.72949 3.33594 12.0664 0zM456.54 201.601v183.131l-41.2432 -41.2422
c4.47168 -6.75098 7.1084 -14.8145 7.1084 -23.4932c0 -23.5273 -19.1406 -42.668 -42.668 -42.668s-42.668 19.1406 -42.668 42.668c0 23.5264 19.1406 42.668 42.668 42.668c8.67871 0 16.7432 -2.63672 23.4932 -7.1084l41.2432 41.2422h-174.504l-244.804 -246.809
c-5.1123 -5.1123 -5.1123 -13.3896 -0.0263672 -18.4756l174.649 -174.649c5.08594 -5.08594 13.3633 -5.08594 18.4492 0zM405.338 319.996c0 3.94238 -0.963867 7.62891 -2.56836 10.9658l-16.999 -16.999c-1.66406 -1.66406 -3.84863 -2.50098 -6.0332 -2.50098
s-4.36914 0.836914 -6.0332 2.50098c-3.33691 3.33594 -3.33691 8.72949 0 12.0664l16.999 16.999c-3.33691 1.5957 -7.02344 2.56836 -10.9658 2.56836c-14.1143 0 -25.6006 -11.4863 -25.6006 -25.6006c0 -14.1152 11.4863 -25.6016 25.6006 -25.6016
c14.1152 0 25.6006 11.4863 25.6006 25.6016zM290.562 111.102c3.32812 3.33594 8.7207 3.33594 12.0576 0c3.33691 -3.33691 3.33691 -8.73047 0 -12.0664l-90.5156 -90.5078c-1.66406 -1.66406 -3.84863 -2.5 -6.03418 -2.5c-2.18457 0 -4.36914 0.835938 -6.0332 2.5
c-3.33594 3.33691 -3.33594 8.72949 0 12.0664zM320.685 141.311c3.15723 3.15723 9.0459 3.15723 12.1182 0c1.53613 -1.54492 2.47461 -3.75488 2.47461 -6.05957c0 -2.3125 -0.938477 -4.44531 -2.47461 -6.05859c-1.54492 -1.54395 -3.75488 -2.47461 -6.05859 -2.47461
c-2.21875 0 -4.44629 0.930664 -6.05957 2.47461c-1.54395 1.61328 -2.47461 3.83203 -2.47461 6.05859c0 2.21875 0.930664 4.4375 2.47461 6.05957zM248.319 213.692l-90.5156 -90.5156c-1.66406 -1.66406 -3.84863 -2.50098 -6.0332 -2.50098
s-4.36914 0.836914 -6.0332 2.50098c-3.33691 3.33594 -3.33691 8.72949 0 12.0664l90.5156 90.5156c3.33691 3.33691 8.73047 3.33691 12.0664 0c3.33691 -3.33691 3.33691 -8.72949 0 -12.0664zM218.145 111.102c-3.32812 3.33594 -3.32812 8.73828 0 12.0664
l60.3418 60.3408c3.33594 3.33691 8.72949 3.33691 12.0664 0c3.33691 -3.33594 3.33691 -8.72949 0 -12.0664l-60.3418 -60.3408c-1.66406 -1.66406 -3.84863 -2.50098 -6.0332 -2.50098s-4.36914 0.836914 -6.0332 2.50098zM169.87 74.9014
c3.33691 3.33691 8.73828 3.33691 12.0664 0c3.33691 -3.32812 3.33691 -8.72949 0 -12.0664l-12.0664 -12.0752c-1.66406 -1.66406 -3.84863 -2.5 -6.0332 -2.5s-4.36914 0.835938 -6.0332 2.5c-3.33691 3.32812 -3.33691 8.73047 0 12.0664zM175.903 237.825
c3.33691 -3.33594 3.33691 -8.72949 0 -12.0664l-90.5078 -90.5078c-1.66406 -1.66406 -3.84863 -2.5 -6.0332 -2.5s-4.36914 0.835938 -6.0332 2.5c-3.33594 3.33691 -3.33594 8.73047 0 12.0674l90.5078 90.5068c3.33691 3.33691 8.72949 3.33691 12.0664 0z
M200.011 253.434c-2.20996 0 -4.42871 0.947266 -6.05859 2.47461c-1.53613 1.62109 -2.47461 3.83984 -2.47461 6.05859c0 2.30469 0.947266 4.4375 2.56836 6.05957c3.06348 3.15723 8.875 3.15723 12.0234 0c1.54492 -1.53613 2.47559 -3.75488 2.47559 -6.05957
c0 -2.21875 -0.930664 -4.4375 -2.47559 -6.05859c-1.6123 -1.53613 -3.74609 -2.47461 -6.05859 -2.47461zM121.596 111.102c3.15723 3.15723 8.875 3.15723 12.0322 0c1.62109 -1.62207 2.56055 -3.75488 2.56055 -6.05957
c0 -2.22656 -0.939453 -4.36035 -2.47559 -5.97266c-1.62109 -1.62988 -3.83984 -2.56055 -6.05859 -2.56055c-2.3125 0 -4.44629 0.938477 -6.05859 2.56055c-1.62109 1.52734 -2.47461 3.74609 -2.47461 5.97266c0 2.30469 0.853516 4.51465 2.47461 6.05957z
M206.069 86.9424c-1.6123 -1.53613 -3.74609 -2.47461 -6.05859 -2.47461c-2.21875 0 -4.4375 0.930664 -6.05859 2.47461c-1.53613 1.61328 -2.47461 3.84082 -2.47461 6.05957s0.938477 4.4375 2.47461 6.05859c3.15723 3.15723 8.96875 3.15723 12.1172 0
c1.62207 -1.62109 2.47559 -3.83984 2.47559 -6.05859s-0.853516 -4.44629 -2.47559 -6.05957z" />
    <glyph glyph-name="uniF10F" unicode="&#xf10f;" 
d="M477.955 185.368l19.0957 -39.0645c10.6318 -21.751 2.20801 -47.6777 -19.1777 -59.0234l-38.4092 -20.3799c-4.14355 -2.19922 -6.98438 -6.11035 -7.79492 -10.7305l-7.51367 -42.8262c-4.18262 -23.8457 -26.2295 -39.8711 -50.207 -36.4785l-43.0527 6.08984
c-4.64551 0.651367 -9.24121 -0.837891 -12.6133 -4.09961l-31.252 -30.2314c-8.69824 -8.41602 -19.8672 -12.624 -31.0293 -12.625c-11.166 -0.000976562 -22.3281 4.20703 -31.0303 12.625l-31.251 30.2314c-3.37207 3.26172 -7.96973 4.75781 -12.6123 4.09961
l-43.0537 -6.08984c-2.14844 -0.304688 -4.28613 -0.452148 -6.39355 -0.452148c-21.3926 -0.00195312 -40.0068 15.2217 -43.8145 36.9297l-7.51172 42.8281c-0.811523 4.61914 -3.65234 8.53125 -7.79688 10.7295l-38.4092 20.3799
c-21.3857 11.3467 -29.8096 37.2715 -19.1777 59.0225l19.0957 39.0635c2.05957 4.21387 2.05957 9.04785 0 13.2637l-19.0947 39.0635c-10.6318 21.751 -2.20801 47.6777 19.1777 59.0234l38.4102 20.3799c4.14258 2.19922 6.9834 6.11035 7.79492 10.7305l7.51172 42.8262
c4.18262 23.8457 26.2324 39.8721 50.207 36.4785l43.0527 -6.08984c4.64648 -0.65332 9.24121 0.836914 12.6133 4.09961l31.252 30.2344c17.3994 16.835 44.6602 16.834 62.0605 0l31.251 -30.2314c3.37109 -3.26172 7.96582 -4.75488 12.6133 -4.09961l43.0527 6.08984
c23.9668 3.3916 46.0244 -12.6328 50.207 -36.4785l7.51172 -42.8281c0.811523 -4.61914 3.65234 -8.53125 7.79688 -10.7295l38.4092 -20.3799c21.3857 -11.3467 29.8096 -37.2715 19.1777 -59.0225l-19.0957 -39.0645c-2.05957 -4.21387 -2.05957 -9.04785 0 -13.2637z
M464.032 113.367c7.23633 3.83887 10.0859 12.6104 6.48828 19.9717l-19.0957 39.0635c-6.08887 12.4551 -6.08887 26.7432 0 39.1982l19.0957 39.0635c3.59668 7.35938 0.74707 16.1299 -6.48926 19.9688l-38.4102 20.3799
c-12.2461 6.49707 -20.6445 18.0557 -23.04 31.7119l-7.5127 42.8291c-1.41504 8.06738 -8.87988 13.4883 -16.9863 12.3418l-43.0527 -6.08984c-13.7275 -1.94336 -27.3164 2.47266 -37.2812 12.1123l-31.251 30.2324c-5.8877 5.69336 -15.1104 5.69336 -20.9961 0
l-31.252 -30.2324c-9.96484 -9.63867 -23.5557 -14.0557 -37.2812 -12.1123l-43.0527 6.08984c-8.1123 1.14551 -15.5703 -4.27441 -16.9863 -12.3418l-7.5127 -42.8281c-2.39453 -13.6562 -10.7939 -25.2139 -23.0391 -31.7129l-38.4102 -20.3799
c-7.23633 -3.83887 -10.0859 -12.6094 -6.48926 -19.9688l19.0957 -39.0645c6.08789 -12.4561 6.08789 -26.7422 0 -39.1982l-19.0957 -39.0645c-3.59668 -7.35938 -0.74707 -16.1299 6.48926 -19.9688l38.4102 -20.3799c12.2461 -6.49707 20.6445 -18.0557 23.04 -31.7119
l7.51367 -42.8291c1.41602 -8.06738 8.88086 -13.4873 16.9863 -12.3418l43.0527 6.08984c2.12598 0.300781 4.24902 0.449219 6.35547 0.449219c11.4941 0 22.5039 -4.41504 30.9258 -12.5615l31.251 -30.2324c5.8877 -5.69336 15.1104 -5.69336 20.9961 0l31.252 30.2314
c9.96484 9.63867 23.5508 14.0576 37.2812 12.1123l43.0527 -6.08984c8.1123 -1.14453 15.5713 4.27441 16.9863 12.3418l7.5127 42.8281c2.39453 13.6562 10.7939 25.2139 23.0391 31.7129zM363.884 299.885c5.7666 -5.7666 5.7666 -15.1152 -0.000976562 -20.8818
l-194.888 -194.888c-2.88184 -2.88379 -6.66211 -4.3252 -10.4404 -4.3252c-3.77734 0 -7.55664 1.44238 -10.4395 4.3252c-5.76562 5.76562 -5.76562 15.1152 0 20.8809l194.888 194.889c5.76562 5.76562 15.1162 5.76562 20.8809 0zM196.939 324.885
c29.8525 0 54.1387 -24.2871 54.1387 -54.1387s-24.2861 -54.1387 -54.1387 -54.1387c-29.8516 0 -54.1387 24.2871 -54.1387 54.1387s24.2871 54.1387 54.1387 54.1387zM196.939 246.138c13.5693 0 24.6084 11.0391 24.6094 24.6094
c0 13.5693 -11.04 24.6074 -24.6094 24.6074c-13.5684 0 -24.6074 -11.0381 -24.6074 -24.6074c0 -13.5703 11.0391 -24.6094 24.6074 -24.6094zM315.06 167.392c29.8516 0 54.1387 -24.2871 54.1387 -54.1387s-24.2871 -54.1387 -54.1387 -54.1387
c-29.8525 0 -54.1387 24.2871 -54.1387 54.1387s24.2861 54.1387 54.1387 54.1387zM315.06 88.6455c13.5684 0 24.6074 11.0381 24.6074 24.6074s-11.0391 24.6074 -24.6074 24.6074c-13.5703 0 -24.6094 -11.0381 -24.6094 -24.6074s11.04 -24.6074 24.6094 -24.6074z" />
    <glyph glyph-name="uniF10A" unicode="&#xf10a;" 
d="M450.207 253.793c34.0723 0 61.793 -27.7207 61.793 -61.793s-27.7207 -61.793 -61.793 -61.793c-34.0732 0 -61.793 27.7207 -61.793 61.793s27.7197 61.793 61.793 61.793zM61.793 253.793c34.0732 0 61.793 -27.7207 61.793 -61.793s-27.7197 -61.793 -61.793 -61.793
c-34.0723 0 -61.793 27.7207 -61.793 61.793s27.7207 61.793 61.793 61.793zM256 253.793c34.0723 0 61.793 -27.7207 61.793 -61.793s-27.7207 -61.793 -61.793 -61.793s-61.793 27.7207 -61.793 61.793s27.7207 61.793 61.793 61.793z" />
    <glyph glyph-name="uniF114" unicode="&#xf114;" 
d="M512 192c0 -74.9385 -32.3682 -142.447 -83.8467 -189.291l0.250977 -0.213867l-8.51758 -7.1123c-0.847656 -0.716797 -1.77832 -1.32227 -2.64355 -2.02051c-3.90137 -3.17383 -7.91309 -6.20898 -12 -9.15039c-1.70312 -1.22852 -3.38867 -2.4668 -5.11035 -3.63965
c-4.78516 -3.27734 -9.70996 -6.3584 -14.7178 -9.30957c-1.35938 -0.800781 -2.71875 -1.58203 -4.08691 -2.35547c-5.50195 -3.09961 -11.1152 -6.01367 -16.8584 -8.71289c-0.708008 -0.334961 -1.4248 -0.642578 -2.13184 -0.967773
c-19.1953 -8.80664 -39.6572 -15.2949 -61.04 -19.1309c-0.577148 -0.111328 -1.16309 -0.213867 -1.74023 -0.316406c-6.6748 -1.14453 -13.4336 -2.04785 -20.2754 -2.67188c-0.866211 -0.0742188 -1.73145 -0.121094 -2.59766 -0.195312
c-6.83301 -0.548828 -13.7119 -0.912109 -20.6846 -0.912109c-7.03809 0 -13.9824 0.363281 -20.8525 0.930664c-0.84668 0.0751953 -1.68457 0.121094 -2.52246 0.195312c-6.89844 0.624023 -13.7129 1.55469 -20.4521 2.71875
c-0.577148 0.102539 -1.14551 0.205078 -1.71289 0.306641c-21.709 3.91992 -42.4678 10.5566 -61.915 19.5957c-0.4375 0.205078 -0.883789 0.391602 -1.32129 0.59668c-5.96777 2.81055 -11.7949 5.87402 -17.501 9.12207
c-1.14551 0.652344 -2.29004 1.30371 -3.42578 1.97363c-5.21387 3.08203 -10.3145 6.33008 -15.2861 9.75586c-1.53613 1.06152 -3.04395 2.15039 -4.55176 3.24023c-4.6543 3.36035 -9.22559 6.83301 -13.6377 10.4912
c-0.540039 0.446289 -1.12695 0.819336 -1.66699 1.27539l-8.30371 7l0.242188 0.213867c-51.0322 46.8252 -83.0928 114.027 -83.0928 188.584c0 141.153 114.847 256 256 256s256 -114.847 256 -256zM18.6182 192c0 -70.0234 30.4971 -133.046 78.8945 -176.538
c2.32715 1.66699 4.6543 3.15625 7 4.43164l73.6074 40.1504c6.6748 3.64844 10.8174 10.6309 10.8174 18.2266v26.9404c-5.73438 7.57812 -21.2529 29.9385 -28.793 59.4766c-7.87598 6.45117 -12.4746 16.0117 -12.4746 26.2607v33.001
c0 8.07031 2.96973 15.8994 8.25781 22.0527v43.4453c-0.484375 4.83203 -2.19727 32.0977 17.5283 54.5889c17.1572 19.5771 44.9258 29.4912 82.5439 29.4912s65.3867 -9.91406 82.5439 -29.501c19.7256 -22.4902 18.0127 -49.7568 17.5283 -54.5879v-43.4453
c5.29688 -6.15332 8.25781 -13.9824 8.25781 -22.0537v-33.001c0 -13.2656 -7.61523 -25.0137 -19.4092 -30.6172c-5.96777 -17.25 -14.1504 -33.2803 -24.3535 -47.6904c-1.99121 -2.80176 -3.91895 -5.35254 -5.74316 -7.60547v-27.5273
c0 -7.90332 4.39355 -15.0156 11.4688 -18.5527l78.8203 -39.4053c2.82031 -1.41504 5.57617 -3.10938 8.3125 -4.99902c49.0029 43.5107 79.9561 106.924 79.9561 177.459c0 130.896 -106.486 237.382 -237.382 237.382s-237.382 -106.486 -237.382 -237.382z
M395.255 -0.0654297c1.00488 0.726562 2.0293 1.4248 3.02539 2.17871c-0.493164 0.260742 -0.987305 0.521484 -1.48926 0.772461l-78.8203 39.4053c-13.4238 6.70312 -21.7646 20.2012 -21.7646 35.207v34.4346l2.30859 2.63477
c2.03906 2.33594 4.41211 5.38965 6.85156 8.83398c9.92383 14.0195 17.7432 29.7793 23.2354 46.8438l1.48926 4.60742l4.62695 1.4248c6.47949 2.00098 10.9941 8.02441 10.9941 14.6611v33.001c0 4.3291 -1.84375 8.36914 -5.18555 11.3848l-3.07227 2.77441
l0.0839844 53.0713c0.0185547 0.185547 2.59766 22.9932 -13.1533 40.7832c-13.498 15.2295 -36.4922 22.9561 -68.3848 22.9561c-32.0137 0 -55.082 -7.79199 -68.543 -23.1328c-15.7695 -17.9766 -13.0234 -40.3643 -12.9951 -40.5879l0.0839844 -1.21973v-51.8516
l-3.07227 -2.77441c-3.35156 -3.02539 -5.18555 -7.05566 -5.18555 -11.3848v-33.001c0 -5.22168 2.68164 -10.0625 7.15918 -12.958l3.17383 -2.05762l0.847656 -3.68555c7.60547 -33.1504 27.7314 -57.6328 27.9365 -57.8662l2.14062 -2.58789l0.00976562 -33.5312
c0 -14.4199 -7.86621 -27.666 -20.5264 -34.5732l-73.6074 -40.1504c-0.297852 -0.167969 -0.595703 -0.334961 -0.893555 -0.50293c0.418945 -0.316406 0.819336 -0.651367 1.23828 -0.967773c4.05859 -3.04395 8.22949 -5.9209 12.4551 -8.68555
c1.34082 -0.875 2.69043 -1.74121 4.0498 -2.59766c4.58887 -2.86719 9.24414 -5.61328 14.001 -8.1543c0.669922 -0.363281 1.35938 -0.698242 2.03809 -1.05176c5.21387 -2.70898 10.4922 -5.27832 15.8721 -7.59668
c0.0380859 -0.0185547 0.0839844 -0.0371094 0.121094 -0.0556641c5.68848 -2.43945 11.4785 -4.64551 17.334 -6.6377c0.363281 -0.121094 0.735352 -0.250977 1.09863 -0.37207c11.7939 -3.95605 23.9053 -6.98145 36.2119 -9.03906
c0.260742 -0.046875 0.521484 -0.0927734 0.782227 -0.139648c5.81836 -0.949219 11.6924 -1.64746 17.5938 -2.16895c1.00586 -0.0927734 2.02051 -0.158203 3.03516 -0.232422c5.85547 -0.4375 11.7383 -0.726562 17.6406 -0.726562
c5.83691 0 11.6455 0.279297 17.4268 0.716797c1.04199 0.0742188 2.07617 0.139648 3.10938 0.232422c5.8457 0.512695 11.6729 1.19141 17.4541 2.13184c0.167969 0.0283203 0.334961 0.0654297 0.50293 0.09375c6.14355 1.01465 12.251 2.25195 18.2832 3.74219
c0.0185547 0 0.0371094 0.00878906 0.0556641 0.00878906c5.97656 1.48047 11.8877 3.20215 17.7246 5.13867c0.400391 0.130859 0.791016 0.270508 1.18164 0.400391c11.1436 3.75195 21.9883 8.36914 32.4707 13.7402c1.01465 0.521484 2.0293 1.02441 3.03418 1.55469
c4.56152 2.41992 9.03027 5.00781 13.4238 7.72656c1.57324 0.977539 3.10938 1.98242 4.65527 2.98828c3.36035 2.1875 6.67383 4.47754 9.93262 6.8418z" />
    <glyph glyph-name="uniF111" unicode="&#xf111;" 
d="M507.597 214.374c3.54395 -3.29883 3.75391 -8.85156 0.447266 -12.3955c-1.71973 -1.85938 -4.06152 -2.79785 -6.42188 -2.79785c-2.14062 0 -4.28906 0.771484 -5.97363 2.3418l-29.1152 27.0361v-292.559h-140.358h-140.358h-140.358v292.55l-29.1152 -27.0361
c-3.54395 -3.29004 -9.11426 -3.08789 -12.3955 0.456055c-3.29785 3.55273 -3.08789 9.10547 0.456055 12.4043l251.593 233.626zM203.361 -46.4551h105.269v140.358c0 29.0273 -23.6064 52.6338 -52.6338 52.6338c-29.0283 0 -52.6348 -23.6064 -52.6348 -52.6338
v-140.358zM448.988 -46.4551v291.305l-192.992 179.211l-192.993 -179.211v-291.305h122.813v140.358c0 38.6943 31.4844 70.1787 70.1797 70.1787c38.6943 0 70.1787 -31.4844 70.1787 -70.1787v-140.358h122.813z" />
  </font>
</defs>
</svg>
